<svg version="1.1" id="Capa_1" xmlns="http://www.w3.org/2000/svg" xmlns:xlink="http://www.w3.org/1999/xlink" x="0px" y="0px" viewBox="0 0 698.3 125" style="enable-background:new 0 0 698.3 125;" xml:space="preserve">
 <style type="text/css">
  .st0{fill-rule:evenodd;clip-rule:evenodd;fill:#01426A;}
 </style>
 <g id="Primer_plano">
  <path class="st0" d="M671.5,43.3c5,0,9,4,9,9s-4,9-9,9s-9-4-9-9C662.5,47.4,666.5,43.4,671.5,43.3z M590.5,55.6
		c-3.2,5.8-8.5,13.8-8.5,20.2c0,7.7,4,10,10.6,10c10.6,0,25.9-10.4,35.4-18c-10,4.2-22.1,9.6-32,9.6c-4.9,0-9.3-1.5-9.3-8.4
		C586.7,64.8,588.4,59.7,590.5,55.6L590.5,55.6z M557.5,0h69.4c-28.8,24.4-55.3,57.7-57.7,79.2c-0.2,1.5-0.3,3-0.3,4.4
		c0,4.4,2,12.1,7.5,15.8c-2.9-3.5-4.6-7.8-4.9-12.3c-0.1-8.5,2.9-16.7,8.5-23.1c-1.9,5.2-3.9,9.9-4.4,14.8c-0.2,1.5-0.3,3-0.3,4.6
		c0.3,18.4,22.2,17,26.8,16.5c32.1-4,64.7-31.6,66.3-31.6c0,0,17.8,1.9,18.6-15.7c0.4-8.5-6.7-15.9-15.9-15.9
		c-8.2,0-15.7,6.4-16,16.5c-16.2,15-46.6,37.8-65.3,37.8c-6.5,0-10.8-3.7-10.8-11.2c0-23.8,41.1-64.1,67-79.7h52.1v125H557.5V0z">
  </path>
  <path class="st0" d="M484.9,98.4c0.8-2.5,1.5-4.9,2.2-7.2s1.5-4.7,2.3-7.2c3.2,0.3,6.5-0.1,9.5-1.1c2.6-1.1,4.7-2.9,6.1-5.3
		c1.1-1.8,1.9-3.9,2.3-5.9c0.6-2.4,0.9-4.8,1-7.3c0-2.5-0.2-5-0.6-7.5c-0.4-2.2-1.1-4.3-2.2-6.3c-1.2-2.1-3-3.8-5.1-4.9
		c-2.3-1.2-4.8-1.9-7.4-2.3c-2.9-0.4-5.8-0.5-8.7-0.3c-3,0.2-6.1,0.5-9.1,1v80.3h-18.2V31.5c3.3-0.8,6.7-1.4,10.4-1.9
		c3.6-0.5,7.4-0.9,11.3-1.1c4.9-0.1,9.5,0,13.9,0.3c4,0.2,7.9,0.8,11.8,1.9c3.3,0.9,6.5,2.2,9.4,4.1c2.7,1.7,5,4,6.8,6.8
		c1.3,1.9,2.4,4.1,3.1,6.3c0.8,2.4,1.4,4.9,1.8,7.4c0.4,2.7,0.6,5.3,0.5,8c0,2.7-0.2,5.4-0.6,8c-0.3,2.5-0.9,5-1.6,7.4
		c-0.7,2.2-1.5,4.3-2.6,6.3c-1.5,2.6-3.5,4.9-5.9,6.8c-2.5,2-5.2,3.5-8.2,4.6c-3.3,1.2-6.8,1.9-10.3,2.2
		C492.9,99,488.9,98.9,484.9,98.4z M337.6,98.6V27.6h14l2.1,8.9c8.2-5.9,16.4-8.9,24.5-8.9c9,0,15.4,3.2,19.2,9.7
		c9.1-6.5,17.7-9.7,25.7-9.7c15.1,0,22.7,9,22.7,27v44h-18.1V53.9c0-7.9-3.4-11.8-10.1-11.8c-5.4,0-11,3.1-16.9,9.2v47.3h-18.1V54.1
		c0-8-3.3-12-10-12c-5.7,0-11.4,3.1-17,9.2v47.3L337.6,98.6z M293.2,68.2c-8.7,0-13,2.7-13,8.1s4.3,8.1,13,8.1h16.7l0.1-16.2H293.2z
		 M262.1,76.5c0-14.5,10.4-21.8,31.1-21.8c5.6-0.1,11.2,0.4,16.7,1.3v-4.7c0-6.4-6.2-9.5-18.6-9.5c-7.9,0-15.8,1.2-23.3,3.4V31
		c7.6-2.2,15.4-3.4,23.3-3.4c24.5,0,36.7,7.8,36.7,23.4v47.6h-36.9C271.8,98.6,262.1,91.2,262.1,76.5z M225.1,16.1h13.4l2.7,11.5
		h16.7v14.2h-14.7v32.6c0,6.6,2.9,9.9,8.7,9.9h6v14.2h-14.7c-12,0-18-6.4-18-19.1L225.1,16.1z M159.8,95.2V80.3
		c8,3.2,17.2,4.7,27.6,4.7c7.8,0,11.7-2.5,11.7-7.4c0-4.5-2.6-6.8-7.9-6.8h-13c-14.6,0-21.8-7.2-21.8-21.6
		c0-14.9,10.6-22.3,31.9-22.3c8.7-0.1,17.3,1.3,25.5,4.1v14.9c-8.3-3.2-17.1-4.8-25.9-4.7c-9.8,0-14.7,2.5-14.7,7.4
		c0,4.5,2.8,6.8,8.5,6.8h11.6c15.9,0,23.9,7.2,23.9,21.6c0,14.9-10.1,22.3-30.4,22.3C177.6,99.4,168.5,98,159.8,95.2z M105.4,57
		h29.9c0.6-10.2-4.2-15.3-14.3-15.3C111.4,41.7,106.2,46.8,105.4,57z M152.2,70.1h-46.9c0,9.5,7.9,14.3,23.6,14.3
		c7.3,0,14.5-0.7,21.7-2v14.2c-6.3,1.3-14.5,2-24.4,2c-26,0-39-12.1-39-36.3c0-23.1,11.9-34.7,35.7-34.7
		C146.7,27.7,156.5,41.8,152.2,70.1L152.2,70.1z M67.8,20.2l7.9-14.7L67.8,20.2z M67.8,20.2c-2-0.7-4.1-1.2-6.2-1.6
		c-2.3-0.5-4.6-0.7-6.9-0.7c-11.8,0-20.7,2.7-26.5,8s-8.8,13-8.7,23.1c0,11.3,2.7,19.9,8.1,25.7s13.6,8.7,24.6,8.6
		c1.9,0,3.7-0.2,5.5-0.5l6.2-1.1v-21H46.2l8.5-15.6h27.7v48.2C74,96.5,63.9,98,52.1,98c-17.3,0-30.3-4.1-39-12.2S0,65.4,0,49
		c-0.1-6.9,1-13.8,3.3-20.3c2.1-5.8,5.5-11,10-15.1C18,9.2,23.6,6,29.8,4.1C37.3,1.8,45.1,0.6,53,0.8c4,0,7.9,0.5,11.8,1.4
		c3.7,1,7.4,2.1,10.9,3.3L67.8,20.2z">
  </path>
 </g>
</svg>